<svg xmlns="http://www.w3.org/2000/svg" width="39.061" height="39.061" viewBox="0 0 39.061 39.061"><defs><style>.a{fill:none;stroke:#fff;}.b{fill:#fff;}</style></defs><g transform="translate(0.5 0.5)"><g transform="translate(-370.955 -128.505)"><path class="a" d="M19.03,0h0a19.03,19.03,0,0,1,19.03,19.03h0a19.03,19.03,0,0,1-19.03,19.03h0A19.03,19.03,0,0,1,0,19.031H0A19.03,19.03,0,0,1,19.03,0Z" transform="translate(370.955 128.505)"/><path class="b" d="M387.086,159.039h4.632v-11.6h3.232l.345-3.884h-3.577v-2.212c0-.916.184-1.278,1.07-1.278H395.3v-4.031h-3.208c-3.447,0-5,1.518-5,4.424v3.1h-2.41v3.933h2.41Z"/></g></g></svg>